<svg data-v-423bf9ae="" xmlns="http://www.w3.org/2000/svg" viewBox="0 0 131.49206033317245 168" class="iconAbove"><!----><!----><!----><g data-v-423bf9ae="" id="bc0271e9-d001-4958-9192-90bbe5f4cb8c" fill="white" transform="matrix(6.349206477356088,0,0,6.349206477356088,-0.0634916565326904,107.10840225151264)"><path d="M2.73 4.70C1.90 4.70 1.95 6.10 2.73 6.10L3.22 6.10L3.22 6.71C3.22 7.62 2.93 8.05 2.32 8.05C1.71 8.05 1.41 7.62 1.41 6.71C1.41 6.34 1.41 4.94 1.41 2.72C1.41 2.07 1.54 1.74 1.74 1.57C1.89 1.41 2.13 1.39 2.32 1.39C2.52 1.39 2.74 1.41 2.91 1.57C3.08 1.72 3.22 2.06 3.22 2.72L3.22 2.91C3.22 3.19 3.44 3.42 3.72 3.42L4.13 3.42C4.40 3.42 4.62 3.19 4.62 2.91L4.62 2.72C4.62 0.94 3.86 0 2.32 0C0.78 0 0.01 0.94 0.01 2.72L0.01 6.71C0.01 8.47 0.78 9.44 2.32 9.44C3.86 9.44 4.62 8.48 4.62 6.71L4.62 5.21C4.62 4.93 4.40 4.70 4.13 4.70L2.73 4.70ZM5.54 6.86C5.54 8.34 6.16 9.42 7.84 9.42C9.46 9.42 10.14 8.43 10.14 6.86L10.14 0.49C10.14 0.21 9.91-0.01 9.63-0.01L9.24-0.01C8.97-0.01 8.75 0.21 8.75 0.49L8.75 6.86C8.75 7.53 8.55 8.04 7.84 8.04C7.15 8.04 6.93 7.60 6.93 6.86L6.93 0.49C6.93 0.21 6.71-0.01 6.43-0.01L6.03-0.01C5.77-0.01 5.54 0.21 5.54 0.49ZM11.31 0.88C11.31 1.16 11.54 1.39 11.82 1.39L12.95 1.39L12.95 8.92C12.95 9.20 13.17 9.42 13.45 9.42L13.83 9.42C14.11 9.42 14.34 9.20 14.34 8.92L14.34 1.39L15.48 1.39C15.76 1.39 15.99 1.16 15.99 0.88L15.99 0.49C15.99 0.21 15.76-0.01 15.48-0.01L11.82-0.01C11.54-0.01 11.31 0.21 11.31 0.49ZM16.10 6.69C16.10 8.53 16.87 9.42 18.41 9.42C19.89 9.42 20.72 8.58 20.72 7.01C20.72 5.66 19.78 4.94 18.86 4.23L18.87 4.23C18.19 3.70 17.50 3.15 17.50 2.44C17.50 1.71 17.82 1.39 18.41 1.39C19.03 1.39 19.32 1.81 19.32 2.73L19.32 2.93C19.32 3.21 19.54 3.43 19.82 3.43L20.22 3.43C20.50 3.43 20.72 3.21 20.72 2.93L20.72 2.73C20.72 0.95 19.92-0.01 18.41-0.01C16.93-0.01 16.10 0.90 16.10 2.48C16.10 3.86 17.07 4.62 17.99 5.35L17.99 5.33C18.68 5.87 19.32 6.38 19.32 7.04C19.32 7.78 19.00 8.04 18.41 8.04C18.21 8.04 17.98 8.01 17.82 7.85C17.63 7.69 17.50 7.36 17.50 6.69L17.50 6.51C17.50 6.23 17.26 6.01 17.00 6.01L16.60 6.01C16.32 6.01 16.10 6.23 16.10 6.51Z"></path></g><!----><g data-v-423bf9ae="" id="1c617986-adf1-43c1-bdc5-e9a9144d0d8c" transform="matrix(1.0222247653537326,0,0,1.0222247653537326,18.9774665828542,0.9775438093877824)" stroke="none" fill="white"><path d="M30.545 27.29C23.096 14.358 24.361 0 46.37 0c23.021 0 42.107 16.794 45.565 38.737.899 5.739-7.759 7.11-8.658 1.344C80.466 22.308 65.006 8.732 46.37 8.732c-9.866 0-15.01 4.843-8.432 14.667l.421-.223 9.079-4.815-1.855 26.394L21.41 32.132l9.107-4.815.028-.027m7.674 42.04c-19.395 35.855-62.121-26.114-20.857-59.309 4.525-3.667 10.035 3.134 5.509 6.773-28.221 22.699-5.509 71.933 7.702 48.142l-8.826-5.039L45.19 47.471l2.08 27.093-8.911-5.122-.14-.112m32.353-8.677L48.563 45.875 71.612 31.32l-.366 10.244v.168c14.729.224 26.198 8.538 15.32 27.318-11.497 19.845-35.642 27.878-56.471 19.901-5.453-2.099-2.305-10.244 3.149-8.145 33.983 13.043 65.549-31.573 37.721-30.704l-.028.307"></path></g><!----></svg>